<?xml version="1.0" encoding="UTF-8" standalone="no"?>
<svg xmlns="http://www.w3.org/2000/svg" width="192" height="192" viewBox="0 0 192 192" fill="none">
  <rect width="192" height="192" rx="42" fill="url(#paint0_linear)" />
  <path d="M42 70.5C42 66.9102 44.9102 64 48.5 64H143.5C147.09 64 150 66.9102 150 70.5V121.5C150 125.09 147.09 128 143.5 128H48.5C44.9102 128 42 125.09 42 121.5V70.5Z" fill="white" fill-opacity="0.9"/>
  <path d="M57.184 93.712C59.976 93.712 62.36 93.016 64.336 91.624C66.312 90.232 67.576 88.328 68.128 85.912L63.416 84.28C63.16 85.704 62.52 86.872 61.496 87.784C60.472 88.664 58.992 89.104 57.056 89.104C54.488 89.104 52.552 88.2 51.24 86.392C49.96 84.584 49.32 82.088 49.32 78.904C49.32 75.656 49.96 73.128 51.24 71.32C52.552 69.512 54.488 68.608 57.056 68.608C58.992 68.608 60.472 69.064 61.496 69.976C62.52 70.856 63.16 72.008 63.416 73.432L68.128 71.848C67.576 69.432 66.312 67.528 64.336 66.136C62.36 64.744 59.976 64.048 57.184 64.048C53.064 64.048 49.8 65.384 47.392 68.056C45.016 70.696 43.828 74.36 43.828 79.048C43.828 83.704 45.016 87.352 47.392 89.992C49.8 92.632 53.064 93.952 57.184 93.712Z" fill="#1E3A8A"/>
  <path d="M87.5215 93.712C89.3935 93.712 91.1015 93.352 92.6455 92.632C94.2215 91.88 95.4855 90.84 96.4775 89.512C97.4695 88.152 98.1095 86.552 98.3975 84.712L93.3935 83.512C93.2375 84.632 92.8055 85.656 92.0975 86.584C91.3895 87.48 90.4295 88.2 89.2175 88.744C88.0375 89.256 86.6935 89.512 85.1815 89.512C82.7415 89.512 80.7655 88.68 79.2535 87.016C77.7735 85.352 77.0335 82.936 77.0335 79.768V79.384H98.7975V77.848C98.7975 73.352 97.6175 69.848 95.2575 67.336C92.8975 64.792 89.6815 63.52 85.5655 63.52C81.3255 63.52 77.9655 64.856 75.4855 67.528C73.0055 70.2 71.7655 73.848 71.7655 78.472C71.7655 83.096 73.0055 86.744 75.4855 89.416C77.9655 92.088 81.3255 93.712 87.5215 93.712ZM93.4415 75.48H77.0335C77.1575 73.48 77.8175 71.864 79.0135 70.632C80.2095 69.368 82.0015 68.736 84.3895 68.736C86.7455 68.736 88.5055 69.352 89.6695 70.584C90.8655 71.816 91.5895 73.448 91.8775 75.48H93.4415Z" fill="#1E3A8A"/>
  <path d="M111.869 93H117.069V79.768C117.069 77.8 117.709 76.296 118.989 75.256C120.269 74.184 122.037 73.648 124.293 73.648H126.245V68.224H124.389C120.957 68.224 118.285 69.688 116.373 72.616V68.224H111.869V93Z" fill="#1E3A8A"/>
  <path d="M46.584 131H62.2V126.92H51.04V115.16H60.44V111.08H51.04V103.48H62.2V99.4H46.584V131Z" fill="#1E3A8A"/>
  <path d="M70.6469 131H74.9269V121.96C74.9269 120.653 75.1935 119.56 75.7269 118.68C76.2869 117.773 77.0469 117.093 78.0069 116.64C78.9935 116.187 80.1135 115.96 81.3669 115.96C82.9402 115.96 84.1135 116.413 84.8869 117.32C85.6602 118.227 86.0469 119.613 86.0469 121.48V131H90.3269V120.52C90.3269 117.693 89.6469 115.587 88.2869 114.2C86.9535 112.787 84.9269 112.08 82.2069 112.08C80.5002 112.08 79.0069 112.4 77.7269 113.04C76.4469 113.653 75.4602 114.547 74.7669 115.72V112.44H70.6469V131Z" fill="#1E3A8A"/>
  <path d="M100.998 131H105.278V121.96C105.278 120.653 105.544 119.56 106.078 118.68C106.638 117.773 107.398 117.093 108.358 116.64C109.344 116.187 110.464 115.96 111.718 115.96C113.291 115.96 114.464 116.413 115.238 117.32C116.011 118.227 116.398 119.613 116.398 121.48V131H120.678V120.52C120.678 117.693 119.998 115.587 118.638 114.2C117.304 112.787 115.278 112.08 112.558 112.08C110.851 112.08 109.358 112.4 108.078 113.04C106.798 113.653 105.811 114.547 105.118 115.72V112.44H100.998V131Z" fill="#1E3A8A"/>
  <defs>
    <linearGradient id="paint0_linear" x1="0" y1="0" x2="192" y2="192" gradientUnits="userSpaceOnUse">
      <stop stop-color="#2563EB"/>
      <stop offset="1" stop-color="#1E3A8A"/>
    </linearGradient>
  </defs>
</svg>