<?xml version="1.0" encoding="UTF-8" standalone="no"?>
<svg xmlns="http://www.w3.org/2000/svg" width="72" height="72" viewBox="0 0 72 72" fill="none">
  <rect width="72" height="72" rx="16" fill="url(#paint0_linear)" />
  <path d="M15.75 26.438C15.75 25.092 16.842 24 18.188 24H53.812C55.158 24 56.25 25.092 56.25 26.438V45.562C56.25 46.908 55.158 48 53.812 48H18.188C16.842 48 15.75 46.908 15.75 45.562V26.438Z" fill="white" fill-opacity="0.9"/>
  <path d="M21.444 35.142C22.491 35.142 23.385 34.881 24.126 34.359C24.867 33.837 25.359 33.123 25.548 32.217L23.781 31.695C23.679 32.202 23.436 32.625 23.052 32.964C22.668 33.291 22.119 33.456 21.396 33.456C20.418 33.456 19.707 33.075 19.263 32.313C18.834 31.551 18.621 30.552 18.621 29.316C18.621 28.062 18.834 27.048 19.263 26.286C19.707 25.524 20.418 25.143 21.396 25.143C22.119 25.143 22.668 25.314 23.052 25.656C23.436 25.986 23.679 26.403 23.781 26.91L25.548 26.418C25.359 25.512 24.867 24.795 24.126 24.267C23.385 23.739 22.491 23.478 21.444 23.478C19.893 23.478 18.675 24.018 17.772 25.098C16.881 26.166 16.437 27.615 16.437 29.433C16.437 31.239 16.881 32.682 17.772 33.75C18.675 34.818 19.893 35.352 21.444 35.142Z" fill="#1E3A8A"/>
  <path d="M32.8203 35.142C33.5229 35.142 34.1667 35.004 34.7521 34.728C35.3479 34.44 35.8323 34.05 36.2052 33.558C36.5781 33.057 36.8037 32.457 36.8991 31.767L35.0229 31.317C34.9641 31.737 34.7906 32.121 34.5025 32.469C34.2143 32.805 33.8109 33.075 33.2932 33.279C32.7853 33.471 32.2111 33.567 31.5682 33.567C30.6276 33.567 29.8531 33.255 29.2344 32.631C28.6255 32.007 28.3212 31.098 28.3212 29.904V29.748H37.0491V29.193C37.0491 27.507 36.6073 26.193 35.7239 25.251C34.8404 24.297 33.6349 23.82 32.0869 23.82C30.4969 23.82 29.2344 24.321 28.3072 25.323C27.3801 26.325 26.9166 27.693 26.9166 29.427C26.9166 31.161 27.3801 32.529 28.3072 33.531C29.2344 34.533 30.4969 35.142 32.8203 35.142ZM35.0417 28.305H28.3212C28.3703 27.549 28.6354 26.949 29.1166 26.505C29.5979 26.046 30.3005 25.818 31.2246 25.818C32.1381 25.818 32.7956 26.04 33.197 26.484C33.6081 26.928 33.8868 27.537 34.0331 28.305H35.0417Z" fill="#1E3A8A"/>
  <path d="M41.9512 34.875H43.9009V29.904C43.9009 29.175 44.1417 28.608 44.6231 28.221C45.1045 27.819 45.7637 27.618 46.6007 27.618H47.3419V25.584H46.6383C45.3585 25.584 44.3219 26.145 43.5286 27.267V25.584H41.9512V34.875Z" fill="#1E3A8A"/>
  <path d="M17.469 49.125H23.325V47.595H19.14V43.185H22.665V41.655H19.14V38.805H23.325V37.275H17.469V49.125Z" fill="#1E3A8A"/>
  <path d="M26.4926 49.125H28.1031V45.735C28.1031 45.2175 28.2196 44.79 28.4526 44.445C28.7001 44.0925 29.0251 43.8225 29.4276 43.635C29.8376 43.4475 30.3126 43.353 30.8526 43.353C31.5876 43.353 32.1226 43.5375 32.4776 43.905C32.8326 44.2725 33.0101 44.8425 33.0101 45.615V49.125H34.6206V45.33C34.6206 44.1 34.3426 43.1775 33.7876 42.57C33.2476 41.9475 32.4051 41.637 31.2601 41.637C30.5326 41.637 29.9126 41.772 29.4001 42.042C28.8876 42.3 28.4701 42.6825 28.1451 43.17V41.775H26.4926V49.125Z" fill="#1E3A8A"/>
  <path d="M37.8732 49.125H39.4832V45.735C39.4832 45.2175 39.5992 44.79 39.8322 44.445C40.0797 44.0925 40.4047 43.8225 40.8072 43.635C41.2172 43.4475 41.6922 43.353 42.2322 43.353C42.9672 43.353 43.5022 43.5375 43.8572 43.905C44.2122 44.2725 44.3897 44.8425 44.3897 45.615V49.125H46.0002V45.33C46.0002 44.1 45.7222 43.1775 45.1672 42.57C44.6272 41.9475 43.7847 41.637 42.6397 41.637C41.9122 41.637 41.2922 41.772 40.7797 42.042C40.2672 42.3 39.8497 42.6825 39.5247 43.17V41.775H37.8732V49.125Z" fill="#1E3A8A"/>
  <defs>
    <linearGradient id="paint0_linear" x1="0" y1="0" x2="72" y2="72" gradientUnits="userSpaceOnUse">
      <stop stop-color="#2563EB"/>
      <stop offset="1" stop-color="#1E3A8A"/>
    </linearGradient>
  </defs>
</svg>